<svg xmlns="http://www.w3.org/2000/svg">
  <defs>
    <symbol id="icon-location" viewBox="254.4777 191.5382 71.7162 93">
      <g data-name="Layer 4" transform="matrix(0.9999999999999999, 0, 0, 0.9999999999999999, 240.33581542968747, 188.0381927490234)">
        <path d="M66.841,61.25V44.727a8.077,8.077,0,0,0,4.383-7.173c0-1.989.07-2.4-.159-2.863l-4.382-8.766a1.5,1.5,0,0,0-1.342-.829H34.659a1.5,1.5,0,0,0-1.342.829c-4.73,9.462-4.541,8.931-4.541,9.437v2.192a8.063,8.063,0,0,0,4.383,7.177V61.25a1.5,1.5,0,0,0,1.5,1.5H65.341A1.5,1.5,0,0,0,66.841,61.25ZM33.266,41.14c-1.74-1.74-1.49-3.594-1.49-5.424l3.81-7.62H64.414l3.81,7.62v1.838a5.075,5.075,0,0,1-10.15,0,1.5,1.5,0,0,0-3,0,5.075,5.075,0,0,1-10.149,0,1.5,1.5,0,0,0-3,0A5.077,5.077,0,0,1,33.266,41.14ZM51.787,59.75H48.213V51.792h3.574Zm12.054,0H54.787V50.292a1.5,1.5,0,0,0-1.5-1.5H46.713a1.5,1.5,0,0,0-1.5,1.5V59.75H36.159V45.6a8.055,8.055,0,0,0,7.266-3.358,8.069,8.069,0,0,0,13.149,0,8.033,8.033,0,0,0,7.267,3.356ZM47.664,93.5H28.431a1.5,1.5,0,1,0,0,3H72.262a1.5,1.5,0,0,0,0-3H52.336c37.01-32.844,35.63-56.521,31.447-67.78C78.877,12.512,65.3,3.583,49.992,3.5c-15.3.083-28.869,9.012-33.775,22.22C12.034,36.979,10.654,60.656,47.664,93.5ZM19.028,26.765C23.5,14.72,35.953,6.576,49.992,6.5c14.055.076,26.5,8.22,30.98,20.265C84.9,37.338,86.031,59.747,50,91.565,13.969,59.747,15.1,37.338,19.028,26.765Z"/>
      </g>
    </symbol>
    <symbol id="icon-hours" viewBox="181.6309 357.5643 93.4171 76.9867">
      <path d="M 273.548 369.511 L 272.908 369.511 L 265.848 358.351 C 265.118 357.201 265.848 357.651 202.238 357.651 C 201.068 357.651 201.338 357.771 193.898 369.511 L 193.258 369.511 C 192.428 369.511 191.758 370.181 191.758 371.011 L 191.758 378.311 C 191.758 379.141 192.428 379.811 193.258 379.811 C 193.708 379.811 193.578 378.981 193.578 385.331 C 176.048 395.771 178.268 421.731 197.228 429.091 L 197.228 431.551 L 193.258 431.551 C 191.278 431.551 191.278 434.551 193.258 434.551 L 273.548 434.551 C 275.528 434.551 275.528 431.551 273.548 431.551 L 269.578 431.551 L 269.578 394.231 C 271.668 393.691 273.228 391.801 273.228 389.541 C 273.228 378.721 273.078 379.811 273.548 379.811 C 274.378 379.811 275.048 379.141 275.048 378.311 L 275.048 371.011 C 275.048 370.181 274.378 369.511 273.548 369.511 L 273.548 369.511 Z M 266.578 431.551 L 244.028 431.551 L 244.028 400.211 C 244.028 399.381 243.358 398.711 242.528 398.711 L 229.238 398.711 C 228.668 396.961 227.898 395.301 226.968 393.751 C 227.318 393.551 227.648 393.321 227.938 393.041 C 228.818 393.881 229.998 394.411 231.308 394.411 C 235.388 394.411 237.098 394.761 238.878 393.041 C 240.678 394.771 242.428 394.411 246.458 394.411 C 247.768 394.411 248.948 393.891 249.828 393.041 C 250.708 393.881 251.888 394.411 253.198 394.411 C 257.268 394.411 258.978 394.771 260.768 393.041 C 262.468 394.681 264.148 394.411 266.568 394.411 L 266.568 431.551 L 266.578 431.551 Z M 193.578 388.931 C 200.318 384.091 209.458 383.461 216.978 387.951 C 228.228 394.661 230.788 409.601 222.778 419.641 C 217.718 425.991 209.018 429.401 200.228 426.921 C 182.938 422.041 179.018 399.391 193.578 388.931 Z M 208.818 360.651 L 205.068 368.941 L 197.818 368.941 L 203.068 360.651 L 208.818 360.651 Z M 236.498 360.651 L 237.238 368.941 L 229.568 368.941 L 230.318 360.651 L 236.488 360.651 L 236.498 360.651 Z M 263.758 360.651 L 269.008 368.941 L 261.748 368.941 L 257.998 360.651 L 263.748 360.651 L 263.758 360.651 Z M 272.048 376.811 L 195.078 376.811 C 194.628 376.811 194.758 377.461 194.758 372.511 L 272.048 372.511 L 272.048 376.811 Z M 268.358 391.411 L 264.148 391.411 C 263.118 391.411 262.268 390.571 262.268 389.541 L 262.268 379.811 L 270.218 379.811 L 270.218 389.541 C 270.218 390.571 269.378 391.411 268.348 391.411 L 268.358 391.411 Z M 241.028 406.011 L 230.448 406.011 C 230.428 404.541 230.278 403.111 230.008 401.711 L 241.028 401.711 L 241.028 406.011 Z M 225.248 391.281 C 223.388 388.901 221.088 386.881 218.488 385.331 L 218.488 379.821 L 226.438 379.821 L 226.438 389.551 C 226.438 390.341 225.948 391.011 225.258 391.281 L 225.248 391.281 Z M 207.538 379.821 L 215.488 379.821 L 215.488 383.811 C 213.018 382.771 210.338 382.131 207.538 381.961 L 207.538 379.821 L 207.538 379.821 Z M 229.438 379.821 L 237.388 379.821 L 237.388 389.551 C 237.388 390.581 236.548 391.421 235.518 391.421 L 231.308 391.421 C 230.278 391.421 229.428 390.581 229.428 389.551 L 229.428 379.821 L 229.438 379.821 Z M 240.388 379.821 L 248.338 379.821 L 248.338 389.551 C 248.338 390.581 247.498 391.421 246.468 391.421 L 242.258 391.421 C 241.228 391.421 240.378 390.581 240.378 389.551 L 240.378 379.821 L 240.388 379.821 Z M 251.338 379.821 L 259.288 379.821 L 259.288 389.551 C 259.288 390.581 258.448 391.421 257.418 391.421 L 253.208 391.421 C 252.178 391.421 251.328 390.581 251.328 389.551 L 251.328 379.821 L 251.338 379.821 Z M 254.718 360.661 L 258.468 368.951 L 250.988 368.951 L 248.748 360.661 L 254.728 360.661 L 254.718 360.661 Z M 245.638 360.661 L 247.878 368.951 L 240.258 368.951 L 239.518 360.661 L 245.638 360.661 Z M 226.578 368.951 L 218.958 368.951 L 221.208 360.661 L 227.328 360.661 L 226.578 368.951 Z M 215.858 368.951 L 208.378 368.951 L 212.128 360.661 L 218.108 360.661 L 215.858 368.951 Z M 196.608 379.811 L 204.558 379.811 L 204.558 381.951 C 201.758 382.121 199.078 382.761 196.608 383.801 L 196.608 379.801 L 196.608 379.811 Z M 200.258 430.031 C 208.258 431.991 216.718 429.811 222.808 424.061 L 222.808 431.541 L 200.228 431.541 L 200.228 430.021 L 200.258 430.031 Z M 225.808 420.661 C 228.248 417.311 229.858 413.331 230.328 409.001 L 241.048 409.001 L 241.048 431.551 L 225.798 431.551 L 225.798 420.661 L 225.808 420.661 Z M 260.798 407.831 L 249.848 407.831 C 248.018 407.831 246.528 409.321 246.528 411.151 L 246.528 422.101 C 246.528 423.931 248.018 425.421 249.848 425.421 L 260.798 425.421 C 262.628 425.421 264.118 423.931 264.118 422.101 L 264.118 411.151 C 264.118 409.321 262.628 407.831 260.798 407.831 L 260.798 407.831 Z M 261.118 422.101 C 261.118 422.601 261.118 422.421 249.848 422.421 C 249.348 422.421 249.528 422.421 249.528 411.151 C 249.528 410.651 249.528 410.831 260.798 410.831 C 261.308 410.831 261.118 410.831 261.118 422.101 Z M 218.828 420.021 C 228.018 411.461 226.388 396.411 215.408 390.081 C 203.078 382.951 187.298 391.811 187.298 406.321 C 187.298 422.471 206.698 431.331 218.828 420.021 Z M 206.238 390.571 C 218.788 390.711 226.398 405.051 218.828 415.521 C 213.648 422.691 204.038 423.971 197.258 419.381 C 184.248 410.591 190.788 390.381 206.238 390.571 Z M 200.258 409.591 C 200.428 409.231 200.268 409.431 203.148 406.601 C 203.028 405.381 203.628 404.361 204.558 403.801 L 204.558 399.931 C 204.558 397.951 207.558 397.951 207.558 399.931 L 207.558 403.801 C 210.698 405.681 208.248 410.381 204.958 409.031 L 202.668 411.281 C 201.478 412.441 199.568 411.091 200.268 409.581 L 200.258 409.591 Z M 204.558 395.261 C 204.558 392.811 204.478 392.621 204.838 392.111 C 205.318 391.431 206.228 391.281 206.898 391.731 C 207.728 392.281 207.568 392.941 207.568 395.261 C 207.568 397.241 204.568 397.241 204.568 395.261 L 204.558 395.261 Z M 207.558 417.381 L 207.558 419.661 C 207.558 421.651 204.558 421.641 204.558 419.661 L 204.558 417.381 C 204.558 415.401 207.558 415.401 207.558 417.381 Z M 217.128 404.821 L 219.408 404.821 C 221.388 404.821 221.388 407.821 219.408 407.821 L 217.128 407.821 C 215.148 407.821 215.148 404.821 217.128 404.821 Z M 192.918 404.821 L 195.198 404.821 C 197.178 404.821 197.178 407.821 195.198 407.821 L 192.918 407.821 C 190.938 407.821 190.938 404.821 192.918 404.821 Z" transform="matrix(0.9999999999999999, 0, 0, 0.9999999999999999, -7.105427357601002e-15, -7.105427357601002e-15)"/>
    </symbol>
    <symbol id="icon-cart" viewBox="56.7583 4.975 92.9997 93.0025">
      <g data-name="Layer 4" transform="matrix(0.9999999999999999, 0, 0, 0.9999999999999999, 53.25828552246093, 1.4750670194625783)">
        <path d="M7.461,14.682H22.667L29.64,61.633l-6.371,4.242a12.229,12.229,0,0,0-5.14,12.943,12.593,12.593,0,0,0,12.373,9.5h1.763a9.668,9.668,0,0,0,19.107,0h13.62a9.668,9.668,0,0,0,19.107,0h2.47a5.594,5.594,0,1,0,.249-11.182H30.077a1.067,1.067,0,0,1-.6-1.956l7.906-5.271H68.409a7.646,7.646,0,0,0,7.637-7.637v-.544H88.863a1.5,1.5,0,0,0,1.484-1.278l6.136-40.909A1.5,1.5,0,0,0,95,17.818H34.448L33.032,8.271A5.575,5.575,0,0,0,27.5,3.5H7.461A3.966,3.966,0,0,0,3.5,7.461v3.26A3.966,3.966,0,0,0,7.461,14.682ZM86.818,80.136a2.6,2.6,0,0,1,2.553,3.041,2.766,2.766,0,0,1-2.8,2.141H84.1a9.65,9.65,0,0,0-2.564-5.182Zm-12.272,0a6.682,6.682,0,1,1-6.683,6.682A6.69,6.69,0,0,1,74.546,80.136Zm-6.99,0a9.65,9.65,0,0,0-2.564,5.182H51.372a9.65,9.65,0,0,0-2.564-5.182Zm-25.738,0a6.682,6.682,0,1,1-6.681,6.682A6.69,6.69,0,0,1,41.818,80.136Zm51.44-59.318-5.687,37.91h-6.31l3.327-37.91Zm-22.059,0H81.576L78.25,58.728H70.789Zm-3,0-.409,37.91H60.847l-.409-37.91Zm-10.76,0,.409,37.91h-7.46L47.06,20.818Zm-13.39,0,3.327,37.91h-6.86l-5.622-37.91ZM20.818,6.5H27.5a2.622,2.622,0,0,1,2.566,2.218c6.927,46.709,7.714,51.966,7.679,51.753a1.5,1.5,0,0,0,.533.914c.612.5-1.176.343,34.768.343v.544a4.642,4.642,0,0,1-4.637,4.637c-34.253,0-31.757-.119-32.311.252l-8.277,5.517a4.073,4.073,0,0,0,2.256,7.458h4.752a9.65,9.65,0,0,0-2.564,5.182H30.5a9.575,9.575,0,0,1-9.447-7.163,9.247,9.247,0,0,1,3.881-9.786L32.1,63.6a1.5,1.5,0,0,0,.652-1.469l-7.3-49.173a1.5,1.5,0,0,0-1.483-1.279H20.818ZM7.113,7.425A2.589,2.589,0,0,1,9.091,6.5h8.727v5.182H9.334A2.606,2.606,0,0,1,7.113,7.425Z"/>
      </g>
    </symbol>
  </defs>
</svg>