<?xml version="1.0" encoding="utf-8"?>
<svg viewBox="119.312 223.0694 74.56 93.0056" xmlns="http://www.w3.org/2000/svg">
  <path d="M 130.952 316.075 L 182.242 316.075 C 188.652 316.075 193.872 310.855 193.872 304.445 L 193.872 264.055 C 193.872 263.475 193.542 262.955 193.022 262.705 C 192.002 262.215 191.602 262.755 189.182 264.695 C 189.402 252.655 188.462 245.545 187.172 232.565 C 186.302 223.805 175.882 220.095 169.642 225.795 C 167.702 227.535 166.492 229.935 166.222 232.565 C 164.842 246.575 164.852 246.315 164.692 248.495 C 160.282 247.015 154.822 249.315 152.982 254.395 C 150.992 254.235 148.192 254.655 145.852 256.725 C 144.132 252.115 144.192 248.785 144.192 245.555 L 145.322 245.555 C 146.152 245.555 146.822 244.885 146.822 244.055 C 146.822 242.105 146.872 241.775 146.682 241.295 C 145.942 239.185 146.002 239.405 146.022 239.305 C 146.362 237.305 146.682 236.505 145.952 235.475 C 145.482 234.805 144.722 234.415 143.902 234.415 L 127.302 234.415 C 125.642 234.415 124.442 236.005 124.892 237.605 L 125.202 239.365 C 124.222 242.125 124.382 241.245 124.382 244.045 C 124.382 244.875 125.052 245.545 125.882 245.545 L 127.012 245.545 C 127.012 256.205 124.402 257.775 122.302 263.245 L 121.682 262.805 C 120.692 262.105 119.312 262.815 119.312 264.035 L 119.312 304.425 C 119.312 310.835 124.532 316.055 130.942 316.055 L 130.952 316.075 Z M 153.642 257.545 C 154.492 257.795 155.402 257.235 155.542 256.335 C 156.242 252.055 161.672 249.255 165.752 252.455 C 169.132 255.115 170.362 259.825 167.402 264.905 L 164.892 262.885 C 164.342 262.445 163.562 262.445 163.012 262.885 L 160.402 264.985 L 157.782 262.885 C 157.232 262.445 156.452 262.445 155.902 262.885 L 153.292 264.985 L 150.672 262.885 C 150.122 262.445 149.342 262.445 148.792 262.885 L 146.182 264.985 L 145.772 264.655 C 145.092 259.745 149.722 256.435 153.642 257.545 Z M 169.202 232.865 C 169.592 228.995 172.842 226.075 176.702 226.075 C 180.562 226.075 183.812 228.995 184.192 232.865 L 185.422 245.255 C 186.172 252.825 186.352 263.005 186.212 262.885 C 185.662 262.445 184.862 262.465 184.332 262.885 L 181.722 264.985 L 179.112 262.885 C 178.562 262.445 177.782 262.445 177.232 262.885 L 174.612 264.985 C 171.732 262.675 171.932 262.795 171.602 262.665 C 173.012 257.585 171.222 252.785 167.602 250.095 C 167.472 249.985 168.262 242.585 169.212 232.875 L 169.202 232.865 Z M 190.872 304.445 C 190.872 309.205 187.002 313.075 182.242 313.075 L 130.952 313.075 C 126.192 313.075 122.322 309.205 122.322 304.445 L 122.322 266.945 C 125.302 269.055 124.562 269.055 128.402 265.975 L 131.022 268.075 C 131.572 268.515 132.352 268.515 132.902 268.075 L 135.522 265.975 L 138.132 268.075 C 138.682 268.515 139.462 268.515 140.012 268.075 L 142.632 265.975 C 142.732 266.055 143.522 266.695 145.252 268.075 C 145.802 268.515 146.582 268.515 147.132 268.075 L 149.742 265.975 C 153.802 269.225 152.792 269.235 156.852 265.975 L 159.472 268.075 C 160.022 268.515 160.802 268.515 161.352 268.075 L 163.962 265.975 C 168.042 269.245 167.022 269.205 171.072 265.975 L 173.682 268.075 C 174.232 268.515 175.012 268.515 175.562 268.075 L 178.182 265.975 C 182.232 269.225 181.232 269.235 185.282 265.975 C 188.972 268.945 188.542 269.065 190.892 267.175 L 190.892 304.445 L 190.872 304.445 Z M 127.912 237.425 L 143.292 237.425 C 143.022 238.985 142.832 239.455 143.112 240.235 C 143.542 241.455 143.362 240.465 142.322 240.465 C 137.162 240.465 138.082 240.055 136.362 242.565 L 134.832 242.565 C 134.052 241.425 133.632 240.465 132.602 240.465 C 128.652 240.465 128.442 240.335 127.872 240.845 C 128.402 239.345 128.292 239.585 127.912 237.415 L 127.912 237.425 Z M 129.142 254.555 C 130.172 250.485 130.022 247.775 130.022 243.465 L 131.812 243.465 C 132.872 245.025 133.092 245.565 134.042 245.565 C 138.392 245.565 137.662 245.975 139.382 243.465 L 141.172 243.465 C 141.172 248.595 140.902 253.155 143.692 259.405 C 143.192 260.345 142.872 261.415 142.752 262.575 C 141.942 262.505 141.842 262.765 139.072 264.985 L 136.462 262.885 C 135.912 262.445 135.132 262.445 134.582 262.885 L 131.962 264.985 L 129.342 262.885 C 128.792 262.445 128.012 262.445 127.462 262.885 L 124.872 264.965 C 126.312 260.905 127.802 259.855 129.142 254.555 L 129.142 254.555 Z M 174.912 245.045 C 178.782 246.965 184.912 247.045 184.372 244.255 C 183.372 239.075 174.342 234.765 169.832 237.045 C 169.222 237.345 168.892 238.015 169.022 238.675 C 169.052 238.835 169.812 242.515 174.912 245.055 L 174.912 245.045 Z M 180.742 243.465 C 177.892 243.565 174.252 241.735 172.642 239.455 C 175.492 239.335 179.162 241.215 180.742 243.465 Z M 178.482 249.035 C 178.482 249.035 178.482 249.035 178.482 249.035 C 173.382 246.505 169.972 248.125 169.832 248.195 C 169.222 248.495 168.892 249.165 169.022 249.825 C 170.002 255.075 179.132 259.255 183.562 257.045 C 184.172 256.745 184.502 256.075 184.372 255.415 C 184.342 255.255 183.572 251.575 178.482 249.045 L 178.482 249.035 Z M 172.652 250.615 C 175.542 250.515 179.162 252.375 180.752 254.625 C 178.012 254.745 174.292 252.945 172.652 250.615 Z M 156.612 297.555 C 163.122 297.555 168.422 292.255 168.422 285.745 C 168.422 279.235 163.122 273.935 156.612 273.935 C 150.102 273.935 144.802 279.235 144.802 285.745 C 144.802 292.255 150.102 297.555 156.612 297.555 Z M 156.612 276.935 C 161.472 276.935 165.422 280.885 165.422 285.745 C 165.422 290.605 161.472 294.555 156.612 294.555 C 151.752 294.555 147.802 290.605 147.802 285.745 C 147.802 280.885 151.752 276.935 156.612 276.935 Z M 168.362 305.895 L 144.762 305.895 C 142.782 305.895 142.782 302.895 144.762 302.895 L 168.362 302.895 C 170.342 302.895 170.342 305.895 168.362 305.895 Z" transform="matrix(0.9999999999999999, 0, 0, 0.9999999999999999, -7.105427357601002e-15, -7.105427357601002e-15)"/>
</svg>