<?xml version="1.0" encoding="utf-8"?>
<svg viewBox="117.1737 117.9532 71.9948 68.2312" xmlns="http://www.w3.org/2000/svg">
  <path d="M 174.638 148.104 L 188.347 131.638 C 189.441 130.545 189.443 128.768 188.349 127.676 C 187.851 127.176 187.206 126.917 186.554 126.874 C 186.538 126.058 186.226 125.245 185.605 124.624 C 184.992 124.01 184.191 123.699 183.384 123.678 C 183.364 122.871 183.052 122.072 182.439 121.457 C 181.832 120.85 181.041 120.541 180.244 120.513 C 180.189 119.878 179.933 119.258 179.447 118.773 C 178.355 117.68 176.576 117.68 175.484 118.773 L 159.007 132.473 C 156.198 135.282 155.155 139.295 156.159 143.098 L 151.413 147.263 L 146.781 143.19 C 147.81 139.219 146.691 135.115 143.821 132.552 C 135.363 124.997 129.904 122.64 127.195 121.909 L 127.195 121.908 C 124.443 121.038 121.466 121.764 119.427 123.804 C 117.489 125.741 116.726 128.589 117.433 131.237 L 117.437 131.236 C 118.058 133.811 120.28 139.373 128.168 148.205 C 128.181 148.221 128.196 148.234 128.209 148.25 L 128.199 148.258 C 128.257 148.318 128.317 148.374 128.377 148.432 C 130.698 150.868 134.171 151.948 137.665 151.403 C 138.069 151.342 138.472 151.257 138.872 151.152 L 142.405 155.166 L 124.235 171.107 C 120.991 174.351 120.991 179.63 124.235 182.877 C 127.479 186.122 132.758 186.122 136.005 182.877 L 151.374 165.356 L 167.605 183.796 C 170.873 187.064 176.062 186.937 179.33 183.669 C 182.598 180.401 182.598 175.086 179.33 171.817 L 160.35 155.124 L 164.012 150.951 C 167.816 151.956 171.827 150.913 174.638 148.104 Z M 140.082 149.253 L 139.589 148.669 L 138.909 148.897 C 138.436 149.055 137.959 149.173 137.482 149.255 C 134.75 149.698 131.966 148.861 129.915 146.927 C 129.866 146.877 129.819 146.826 129.772 146.775 C 119.397 135.159 119.348 129.692 119.348 129.655 L 119.341 129.654 C 119.226 128.064 119.802 126.472 120.948 125.325 C 122.1 124.172 123.671 123.604 125.253 123.715 C 125.253 123.715 130.774 123.782 142.39 134.156 C 144.81 136.316 145.642 139.902 144.513 143.292 L 144.308 143.931 L 144.913 144.425 L 149.776 148.7 L 144.03 153.742 L 140.082 149.253 Z M 177.833 173.364 C 180.239 175.795 180.229 179.728 177.81 182.15 C 175.388 184.571 171.455 184.58 169.023 182.174 L 152.805 163.725 L 158.929 156.745 L 177.833 173.364 Z M 163.29 148.631 L 134.538 181.443 C 132.093 183.872 128.124 183.868 125.684 181.427 C 123.244 178.988 123.24 175.02 125.668 172.573 L 158.548 143.73 L 158.28 143.139 C 157.206 139.911 158.018 136.414 160.395 133.99 L 176.981 120.189 C 177.278 119.937 177.713 119.947 177.999 120.222 C 178.554 120.759 178.013 121.304 178.013 121.304 C 177.952 121.358 162.931 136.396 162.931 136.396 L 164.378 137.844 L 179.401 122.821 C 179.88 122.456 180.555 122.471 180.991 122.907 C 181.432 123.349 181.444 124.044 181.057 124.521 L 166.097 139.566 L 167.55 141.01 L 182.437 126.072 L 182.439 126.072 C 182.439 126.072 182.439 126.071 182.441 126.07 C 182.916 125.598 183.683 125.598 184.156 126.071 C 184.631 126.545 184.631 127.316 184.156 127.79 L 169.267 142.733 L 170.716 144.182 L 185.835 129.124 C 186.128 128.83 186.606 128.83 186.901 129.124 C 187.18 129.404 187.184 129.845 186.93 130.14 L 173.12 146.716 C 170.696 149.092 167.2 149.906 163.972 148.833 L 163.29 148.631 Z" transform="matrix(0.9999999999999999, 0, 0, 0.9999999999999999, -7.105427357601002e-15, -7.105427357601002e-15)"/>
</svg>