<?xml version="1.0" encoding="utf-8"?>
<svg viewBox="219.5406 278.6868 84 84" xmlns="http://www.w3.org/2000/svg">
  <g transform="matrix(0.9999999999999999, 0, 0, 0.9999999999999999, 211.54061889648435, 270.686767578125)">
    <path d="M50,8C26.842,8,8,26.842,8,50s18.842,42,42,42s42-18.842,42-42S73.158,8,50,8z M50,88c-20.953,0-38-17.047-38-38   s17.047-38,38-38s38,17.047,38,38S70.953,88,50,88z"/>
    <path d="M50,19.998c-16.543,0-30,13.459-30,30.002s13.457,30.002,30,30.002c16.545,0,30.004-13.459,30.004-30.002   S66.545,19.998,50,19.998z M58,46.197c-0.586-1.092-1-2.617-1-4.344s0.414-3.252,1-4.344c0.574-1.066,1.314-1.719,2-1.719   s1.426,0.652,2,1.719c0.586,1.092,1,2.617,1,4.344s-0.414,3.252-1,4.344c-0.574,1.066-1.314,1.719-2,1.719S58.574,47.264,58,46.197   z M62,73.045v-21.58c3-1.215,5-4.979,5-9.611c0-5.643-3.074-10.062-7-10.062s-7,4.42-7,10.062c0,4.633,2,8.396,5,9.611v23.201   c0,0.021,0.012,0.039,0.012,0.059c-2.525,0.822-5.215,1.277-8.012,1.277c-2.068,0-4-0.268-6-0.727V51.133   c1-0.312,3.297-1.045,4.355-2.209C50.191,46.902,50,44.451,50,44.367v-9.701c0-1.105-0.895-2-2-2s-2,0.895-2,2l0.01,9.891   c0,0.01,0.033,0.963-0.615,1.676C45.043,46.619,44,46.855,44,47.02V34.666c0-1.105-0.895-2-2-2s-2,0.895-2,2v12.422   c-1-0.164-1.119-0.414-1.445-0.76c-0.605-0.643-0.564-1.486-0.564-1.486c0.006-0.066,0.01-0.135,0.01-0.201v-9.975   c0-1.105-0.895-2-2-2s-2,0.895-2,2v9.906c0,0.58-0.025,2.656,1.561,4.408C36.623,50.156,38,50.885,40,51.168v22.828   C30,70.068,24,60.795,24,50c0-14.338,11.664-26.002,26-26.002c14.338,0,26.004,11.664,26.004,26.002   C76.004,60.01,70,68.699,62,73.045z"/>
  </g>
</svg>