<?xml version="1.0" encoding="utf-8"?>
<svg viewBox="300.8552 86.9415 83.0618 82.9995" xmlns="http://www.w3.org/2000/svg">
  <path d="M 342.417 169.941 C 310.47 169.941 290.504 135.358 306.477 107.691 C 322.45 80.025 362.384 80.025 378.357 107.691 C 381.999 114 383.917 121.157 383.917 128.441 C 383.89 151.35 365.325 169.914 342.417 169.941 Z M 342.417 88.941 C 312.01 88.941 293.005 121.858 308.209 148.191 C 320.327 169.18 346.933 173.44 364.931 160.971 C 369.514 157.795 373.539 153.536 376.625 148.191 C 380.092 142.187 381.917 135.375 381.917 128.441 C 381.89 106.638 364.221 88.969 342.417 88.941 Z" style="stroke-width: 6px; stroke-dasharray: 2;" transform="matrix(0.9999999999999999, 0, 0, 0.9999999999999999, -7.105427357601002e-15, -7.105427357601002e-15)"/>
  <path d="M 335.167 125.271 L 329.497 125.271 C 326.785 125.271 324.587 123.073 324.587 120.361 L 324.587 106.111 C 324.587 105.342 325.42 104.86 326.087 105.245 C 326.396 105.424 326.587 105.754 326.587 106.111 L 326.587 120.361 C 326.593 121.966 327.892 123.266 329.497 123.271 L 335.167 123.271 C 336.776 123.271 338.082 121.97 338.087 120.361 L 338.087 106.111 C 338.087 105.342 338.92 104.86 339.587 105.245 C 339.896 105.424 340.087 105.754 340.087 106.111 L 340.087 120.361 C 340.082 123.075 337.88 125.271 335.167 125.271 Z" style="stroke-width: 6px;" transform="matrix(0.9999999999999999, 0, 0, 0.9999999999999999, -7.105427357601002e-15, -7.105427357601002e-15)"/>
  <path d="M 332.337 152.611 C 331.785 152.611 331.337 152.164 331.337 151.611 L 331.337 106.111 C 331.337 105.342 332.17 104.86 332.837 105.245 C 333.146 105.424 333.337 105.754 333.337 106.111 L 333.337 151.611 C 333.337 152.164 332.889 152.611 332.337 152.611 Z" style="stroke-width: 6px;" transform="matrix(0.9999999999999999, 0, 0, 0.9999999999999999, -7.105427357601002e-15, -7.105427357601002e-15)"/>
  <path d="M 352.417 152.611 C 348.097 152.611 344.587 147.711 344.587 141.691 C 344.587 135.671 348.097 130.771 352.417 130.771 C 356.737 130.771 360.247 135.671 360.247 141.691 C 360.247 147.711 356.737 152.611 352.417 152.611 Z M 352.417 132.771 C 349.197 132.771 346.587 136.771 346.587 141.691 C 346.587 146.611 349.197 150.611 352.417 150.611 C 355.637 150.611 358.247 146.611 358.247 141.691 C 358.247 136.771 355.637 132.771 352.417 132.771 Z" style="stroke-width: 6px;" transform="matrix(0.9999999999999999, 0, 0, 0.9999999999999999, -7.105427357601002e-15, -7.105427357601002e-15)"/>
  <path d="M 352.417 132.771 C 351.865 132.771 351.417 132.324 351.417 131.771 L 351.417 105.271 C 351.417 104.502 352.25 104.02 352.917 104.405 C 353.226 104.584 353.417 104.914 353.417 105.271 L 353.417 131.771 C 353.417 132.324 352.969 132.771 352.417 132.771 Z" style="stroke-width: 6px;" transform="matrix(0.9999999999999999, 0, 0, 0.9999999999999999, -7.105427357601002e-15, -7.105427357601002e-15)"/>
</svg>