<svg xmlns="http://www.w3.org/2000/svg" viewBox="0 0 100 125" x="0px" y="0px"><g data-name="Layer 4"><path d="M66.841,61.25V44.727a8.077,8.077,0,0,0,4.383-7.173c0-1.989.07-2.4-.159-2.863l-4.382-8.766a1.5,1.5,0,0,0-1.342-.829H34.659a1.5,1.5,0,0,0-1.342.829c-4.73,9.462-4.541,8.931-4.541,9.437v2.192a8.063,8.063,0,0,0,4.383,7.177V61.25a1.5,1.5,0,0,0,1.5,1.5H65.341A1.5,1.5,0,0,0,66.841,61.25ZM33.266,41.14c-1.74-1.74-1.49-3.594-1.49-5.424l3.81-7.62H64.414l3.81,7.62v1.838a5.075,5.075,0,0,1-10.15,0,1.5,1.5,0,0,0-3,0,5.075,5.075,0,0,1-10.149,0,1.5,1.5,0,0,0-3,0A5.077,5.077,0,0,1,33.266,41.14ZM51.787,59.75H48.213V51.792h3.574Zm12.054,0H54.787V50.292a1.5,1.5,0,0,0-1.5-1.5H46.713a1.5,1.5,0,0,0-1.5,1.5V59.75H36.159V45.6a8.055,8.055,0,0,0,7.266-3.358,8.069,8.069,0,0,0,13.149,0,8.033,8.033,0,0,0,7.267,3.356ZM47.664,93.5H28.431a1.5,1.5,0,1,0,0,3H72.262a1.5,1.5,0,0,0,0-3H52.336c37.01-32.844,35.63-56.521,31.447-67.78C78.877,12.512,65.3,3.583,49.992,3.5c-15.3.083-28.869,9.012-33.775,22.22C12.034,36.979,10.654,60.656,47.664,93.5ZM19.028,26.765C23.5,14.72,35.953,6.576,49.992,6.5c14.055.076,26.5,8.22,30.98,20.265C84.9,37.338,86.031,59.747,50,91.565,13.969,59.747,15.1,37.338,19.028,26.765Z"/></g><text x="0" y="115" fill="#000000" font-size="5px" font-weight="bold" font-family="'Helvetica Neue', Helvetica, Arial-Unicode, Arial, Sans-serif">Created by Hartan</text><text x="0" y="120" fill="#000000" font-size="5px" font-weight="bold" font-family="'Helvetica Neue', Helvetica, Arial-Unicode, Arial, Sans-serif">from the Noun Project</text></svg>