<?xml version="1.0" encoding="utf-8"?>
<svg viewBox="317.7833 231.14 80.0597 79.9995" xmlns="http://www.w3.org/2000/svg">
  <path d="M 357.843 248.64 C 348.221 248.64 342.207 259.056 347.018 267.39 C 351.829 275.723 363.857 275.723 368.669 267.39 C 369.766 265.489 370.343 263.334 370.343 261.14 C 370.335 254.239 364.744 248.647 357.843 248.64 Z M 357.843 268.64 C 352.07 268.64 348.461 262.39 351.348 257.39 C 354.235 252.39 361.452 252.39 364.338 257.39 C 364.997 258.53 365.343 259.823 365.343 261.14 C 365.339 265.28 361.984 268.635 357.843 268.64 Z"/>
  <path d="M 357.843 231.14 C 327.051 231.14 307.806 264.473 323.202 291.14 C 338.598 317.806 377.088 317.806 392.484 291.14 C 395.995 285.059 397.843 278.161 397.843 271.14 C 397.818 249.059 379.924 231.165 357.843 231.14 Z M 337.907 299.883 C 338.855 284.536 356.061 275.97 368.878 284.465 C 374.098 287.924 377.393 293.632 377.78 299.883 C 365.798 308.225 349.889 308.225 337.907 299.883 L 337.907 299.883 Z M 382.335 296.11 C 378.461 277.257 355.63 269.667 341.239 282.449 C 337.205 286.032 334.438 290.825 333.351 296.11 C 314.104 277.257 322.484 244.637 348.436 237.395 C 374.387 230.154 398.447 253.721 391.742 279.816 C 390.153 286.005 386.899 291.64 382.335 296.11 Z"/>
</svg>