<?xml version="1.0" encoding="utf-8"?>
<svg viewBox="56.7583 4.975 92.9997 93.0025" xmlns="http://www.w3.org/2000/svg">
  <g data-name="Layer 4" transform="matrix(0.9999999999999999, 0, 0, 0.9999999999999999, 53.25828552246093, 1.4750670194625783)">
    <path d="M7.461,14.682H22.667L29.64,61.633l-6.371,4.242a12.229,12.229,0,0,0-5.14,12.943,12.593,12.593,0,0,0,12.373,9.5h1.763a9.668,9.668,0,0,0,19.107,0h13.62a9.668,9.668,0,0,0,19.107,0h2.47a5.594,5.594,0,1,0,.249-11.182H30.077a1.067,1.067,0,0,1-.6-1.956l7.906-5.271H68.409a7.646,7.646,0,0,0,7.637-7.637v-.544H88.863a1.5,1.5,0,0,0,1.484-1.278l6.136-40.909A1.5,1.5,0,0,0,95,17.818H34.448L33.032,8.271A5.575,5.575,0,0,0,27.5,3.5H7.461A3.966,3.966,0,0,0,3.5,7.461v3.26A3.966,3.966,0,0,0,7.461,14.682ZM86.818,80.136a2.6,2.6,0,0,1,2.553,3.041,2.766,2.766,0,0,1-2.8,2.141H84.1a9.65,9.65,0,0,0-2.564-5.182Zm-12.272,0a6.682,6.682,0,1,1-6.683,6.682A6.69,6.69,0,0,1,74.546,80.136Zm-6.99,0a9.65,9.65,0,0,0-2.564,5.182H51.372a9.65,9.65,0,0,0-2.564-5.182Zm-25.738,0a6.682,6.682,0,1,1-6.681,6.682A6.69,6.69,0,0,1,41.818,80.136Zm51.44-59.318-5.687,37.91h-6.31l3.327-37.91Zm-22.059,0H81.576L78.25,58.728H70.789Zm-3,0-.409,37.91H60.847l-.409-37.91Zm-10.76,0,.409,37.91h-7.46L47.06,20.818Zm-13.39,0,3.327,37.91h-6.86l-5.622-37.91ZM20.818,6.5H27.5a2.622,2.622,0,0,1,2.566,2.218c6.927,46.709,7.714,51.966,7.679,51.753a1.5,1.5,0,0,0,.533.914c.612.5-1.176.343,34.768.343v.544a4.642,4.642,0,0,1-4.637,4.637c-34.253,0-31.757-.119-32.311.252l-8.277,5.517a4.073,4.073,0,0,0,2.256,7.458h4.752a9.65,9.65,0,0,0-2.564,5.182H30.5a9.575,9.575,0,0,1-9.447-7.163,9.247,9.247,0,0,1,3.881-9.786L32.1,63.6a1.5,1.5,0,0,0,.652-1.469l-7.3-49.173a1.5,1.5,0,0,0-1.483-1.279H20.818ZM7.113,7.425A2.589,2.589,0,0,1,9.091,6.5h8.727v5.182H9.334A2.606,2.606,0,0,1,7.113,7.425Z"/>
  </g>
</svg>