<?xml version="1.0" encoding="utf-8"?>
<svg viewBox="376.007 265.031 83.9325 93.95" xmlns="http://www.w3.org/2000/svg">
  <path d="M 377.497 358.981 L 430.377 358.981 C 431.207 358.981 431.877 358.311 431.877 357.481 L 431.877 340.481 L 459.497 312.861 C 460.087 312.271 460.087 311.331 459.497 310.741 L 452.187 303.421 C 451.607 302.831 450.647 302.831 450.067 303.421 L 431.887 321.611 L 431.887 294.971 L 451.017 294.971 C 455.807 294.971 459.697 291.081 459.697 286.291 L 459.697 273.711 C 459.697 268.921 455.807 265.031 451.017 265.031 L 421.917 265.031 C 417.127 265.031 413.237 268.921 413.237 273.711 L 413.237 282.381 C 390.727 282.381 391.387 282.191 390.727 282.811 C 376.107 297.231 376.357 296.931 376.167 297.291 C 375.957 297.721 376.037 297.291 376.007 357.481 C 376.007 358.311 376.677 358.981 377.507 358.981 L 377.497 358.981 Z M 416.217 273.711 C 416.217 270.581 418.767 268.031 421.897 268.031 L 450.997 268.031 C 454.127 268.031 456.677 270.581 456.677 273.711 L 456.677 286.291 C 456.677 289.421 454.127 291.971 450.997 291.971 L 430.367 291.971 C 420.317 291.971 420.627 291.781 420.027 292.511 L 416.217 297.081 L 416.217 273.711 L 416.217 273.711 Z M 415.867 302.191 L 421.877 294.971 L 428.867 294.971 L 428.867 324.601 C 412.997 340.481 413.237 340.151 413.067 340.561 L 407.877 353.081 C 407.367 354.311 408.607 355.551 409.837 355.041 C 422.827 349.641 422.447 349.861 422.787 349.551 C 423.107 349.261 422.857 349.491 428.867 343.491 L 428.867 355.991 L 378.997 355.991 L 378.997 299.461 L 391.767 299.461 C 392.597 299.461 393.267 298.791 393.267 297.961 L 393.267 285.381 L 413.217 285.381 L 413.217 301.231 C 413.217 302.631 414.977 303.261 415.867 302.191 L 415.867 302.191 Z M 414.987 343.781 L 419.137 347.931 L 412.047 350.881 L 414.997 343.781 L 414.987 343.781 Z M 421.777 346.331 L 416.587 341.141 L 451.117 306.601 L 456.307 311.801 L 421.777 346.331 Z M 381.147 296.461 L 390.267 287.461 L 390.267 296.461 L 381.147 296.461 Z M 393.857 305.711 L 386.247 305.711 C 385.417 305.711 384.747 306.381 384.747 307.211 L 384.747 314.821 C 384.747 315.651 385.417 316.321 386.247 316.321 L 393.857 316.321 C 394.687 316.321 395.357 315.651 395.357 314.821 L 395.357 307.211 C 395.357 306.381 394.687 305.711 393.857 305.711 Z M 392.357 313.321 L 387.747 313.321 L 387.747 308.711 L 392.357 308.711 L 392.357 313.321 Z M 393.857 322.941 L 386.247 322.941 C 385.417 322.941 384.747 323.611 384.747 324.441 L 384.747 332.051 C 384.747 332.881 385.417 333.551 386.247 333.551 L 393.857 333.551 C 394.687 333.551 395.357 332.881 395.357 332.051 L 395.357 324.441 C 395.357 323.611 394.687 322.941 393.857 322.941 L 393.857 322.941 Z M 392.357 330.551 L 387.747 330.551 L 387.747 325.941 L 392.357 325.941 L 392.357 330.551 Z M 393.857 340.171 L 386.247 340.171 C 385.417 340.171 384.747 340.841 384.747 341.671 L 384.747 349.281 C 384.747 350.111 385.417 350.781 386.247 350.781 L 393.857 350.781 C 394.687 350.781 395.357 350.111 395.357 349.281 L 395.357 341.671 C 395.357 340.841 394.687 340.171 393.857 340.171 Z M 392.357 347.781 L 387.747 347.781 L 387.747 343.171 L 392.357 343.171 L 392.357 347.781 Z M 401.737 305.711 L 422.747 305.711 C 424.727 305.711 424.727 308.711 422.747 308.711 L 401.737 308.711 C 399.757 308.711 399.757 305.711 401.737 305.711 Z M 401.737 312.521 L 415.447 312.521 C 417.427 312.521 417.427 315.521 415.447 315.521 L 401.737 315.521 C 399.757 315.521 399.757 312.521 401.737 312.521 Z M 422.747 325.941 L 401.737 325.941 C 399.757 325.941 399.757 322.941 401.737 322.941 L 422.747 322.941 C 424.727 322.941 424.727 325.941 422.747 325.941 Z M 415.447 332.751 L 401.737 332.751 C 399.757 332.751 399.757 329.751 401.737 329.751 L 415.447 329.751 C 417.427 329.751 417.427 332.751 415.447 332.751 Z M 423.567 274.361 L 427.817 274.361 C 429.857 288.151 429.567 287.531 430.377 288.051 C 431.007 288.451 430.447 288.311 443.707 288.311 C 444.447 288.311 445.077 287.771 445.187 287.031 C 446.887 275.701 447.007 276.211 446.397 275.501 C 445.787 274.791 446.407 274.981 430.947 274.981 L 430.727 273.511 C 430.527 272.261 429.477 271.361 428.217 271.361 L 423.567 271.361 C 421.587 271.361 421.587 274.361 423.567 274.361 Z M 435.907 277.981 L 435.987 285.311 L 432.467 285.311 L 431.387 277.981 L 435.907 277.981 L 435.907 277.981 Z M 442.417 285.311 L 438.987 285.311 L 438.907 277.981 L 443.517 277.981 L 442.417 285.311 Z" transform="matrix(0.9999999999999999, 0, 0, 0.9999999999999999, -7.105427357601002e-15, -7.105427357601002e-15)"/>
</svg>