<?xml version="1.0" encoding="utf-8"?>
<svg viewBox="181.6309 357.5643 93.4171 76.9867" xmlns="http://www.w3.org/2000/svg">
  <path d="M 273.548 369.511 L 272.908 369.511 L 265.848 358.351 C 265.118 357.201 265.848 357.651 202.238 357.651 C 201.068 357.651 201.338 357.771 193.898 369.511 L 193.258 369.511 C 192.428 369.511 191.758 370.181 191.758 371.011 L 191.758 378.311 C 191.758 379.141 192.428 379.811 193.258 379.811 C 193.708 379.811 193.578 378.981 193.578 385.331 C 176.048 395.771 178.268 421.731 197.228 429.091 L 197.228 431.551 L 193.258 431.551 C 191.278 431.551 191.278 434.551 193.258 434.551 L 273.548 434.551 C 275.528 434.551 275.528 431.551 273.548 431.551 L 269.578 431.551 L 269.578 394.231 C 271.668 393.691 273.228 391.801 273.228 389.541 C 273.228 378.721 273.078 379.811 273.548 379.811 C 274.378 379.811 275.048 379.141 275.048 378.311 L 275.048 371.011 C 275.048 370.181 274.378 369.511 273.548 369.511 L 273.548 369.511 Z M 266.578 431.551 L 244.028 431.551 L 244.028 400.211 C 244.028 399.381 243.358 398.711 242.528 398.711 L 229.238 398.711 C 228.668 396.961 227.898 395.301 226.968 393.751 C 227.318 393.551 227.648 393.321 227.938 393.041 C 228.818 393.881 229.998 394.411 231.308 394.411 C 235.388 394.411 237.098 394.761 238.878 393.041 C 240.678 394.771 242.428 394.411 246.458 394.411 C 247.768 394.411 248.948 393.891 249.828 393.041 C 250.708 393.881 251.888 394.411 253.198 394.411 C 257.268 394.411 258.978 394.771 260.768 393.041 C 262.468 394.681 264.148 394.411 266.568 394.411 L 266.568 431.551 L 266.578 431.551 Z M 193.578 388.931 C 200.318 384.091 209.458 383.461 216.978 387.951 C 228.228 394.661 230.788 409.601 222.778 419.641 C 217.718 425.991 209.018 429.401 200.228 426.921 C 182.938 422.041 179.018 399.391 193.578 388.931 Z M 208.818 360.651 L 205.068 368.941 L 197.818 368.941 L 203.068 360.651 L 208.818 360.651 Z M 236.498 360.651 L 237.238 368.941 L 229.568 368.941 L 230.318 360.651 L 236.488 360.651 L 236.498 360.651 Z M 263.758 360.651 L 269.008 368.941 L 261.748 368.941 L 257.998 360.651 L 263.748 360.651 L 263.758 360.651 Z M 272.048 376.811 L 195.078 376.811 C 194.628 376.811 194.758 377.461 194.758 372.511 L 272.048 372.511 L 272.048 376.811 Z M 268.358 391.411 L 264.148 391.411 C 263.118 391.411 262.268 390.571 262.268 389.541 L 262.268 379.811 L 270.218 379.811 L 270.218 389.541 C 270.218 390.571 269.378 391.411 268.348 391.411 L 268.358 391.411 Z M 241.028 406.011 L 230.448 406.011 C 230.428 404.541 230.278 403.111 230.008 401.711 L 241.028 401.711 L 241.028 406.011 Z M 225.248 391.281 C 223.388 388.901 221.088 386.881 218.488 385.331 L 218.488 379.821 L 226.438 379.821 L 226.438 389.551 C 226.438 390.341 225.948 391.011 225.258 391.281 L 225.248 391.281 Z M 207.538 379.821 L 215.488 379.821 L 215.488 383.811 C 213.018 382.771 210.338 382.131 207.538 381.961 L 207.538 379.821 L 207.538 379.821 Z M 229.438 379.821 L 237.388 379.821 L 237.388 389.551 C 237.388 390.581 236.548 391.421 235.518 391.421 L 231.308 391.421 C 230.278 391.421 229.428 390.581 229.428 389.551 L 229.428 379.821 L 229.438 379.821 Z M 240.388 379.821 L 248.338 379.821 L 248.338 389.551 C 248.338 390.581 247.498 391.421 246.468 391.421 L 242.258 391.421 C 241.228 391.421 240.378 390.581 240.378 389.551 L 240.378 379.821 L 240.388 379.821 Z M 251.338 379.821 L 259.288 379.821 L 259.288 389.551 C 259.288 390.581 258.448 391.421 257.418 391.421 L 253.208 391.421 C 252.178 391.421 251.328 390.581 251.328 389.551 L 251.328 379.821 L 251.338 379.821 Z M 254.718 360.661 L 258.468 368.951 L 250.988 368.951 L 248.748 360.661 L 254.728 360.661 L 254.718 360.661 Z M 245.638 360.661 L 247.878 368.951 L 240.258 368.951 L 239.518 360.661 L 245.638 360.661 Z M 226.578 368.951 L 218.958 368.951 L 221.208 360.661 L 227.328 360.661 L 226.578 368.951 Z M 215.858 368.951 L 208.378 368.951 L 212.128 360.661 L 218.108 360.661 L 215.858 368.951 Z M 196.608 379.811 L 204.558 379.811 L 204.558 381.951 C 201.758 382.121 199.078 382.761 196.608 383.801 L 196.608 379.801 L 196.608 379.811 Z M 200.258 430.031 C 208.258 431.991 216.718 429.811 222.808 424.061 L 222.808 431.541 L 200.228 431.541 L 200.228 430.021 L 200.258 430.031 Z M 225.808 420.661 C 228.248 417.311 229.858 413.331 230.328 409.001 L 241.048 409.001 L 241.048 431.551 L 225.798 431.551 L 225.798 420.661 L 225.808 420.661 Z M 260.798 407.831 L 249.848 407.831 C 248.018 407.831 246.528 409.321 246.528 411.151 L 246.528 422.101 C 246.528 423.931 248.018 425.421 249.848 425.421 L 260.798 425.421 C 262.628 425.421 264.118 423.931 264.118 422.101 L 264.118 411.151 C 264.118 409.321 262.628 407.831 260.798 407.831 L 260.798 407.831 Z M 261.118 422.101 C 261.118 422.601 261.118 422.421 249.848 422.421 C 249.348 422.421 249.528 422.421 249.528 411.151 C 249.528 410.651 249.528 410.831 260.798 410.831 C 261.308 410.831 261.118 410.831 261.118 422.101 Z M 218.828 420.021 C 228.018 411.461 226.388 396.411 215.408 390.081 C 203.078 382.951 187.298 391.811 187.298 406.321 C 187.298 422.471 206.698 431.331 218.828 420.021 Z M 206.238 390.571 C 218.788 390.711 226.398 405.051 218.828 415.521 C 213.648 422.691 204.038 423.971 197.258 419.381 C 184.248 410.591 190.788 390.381 206.238 390.571 Z M 200.258 409.591 C 200.428 409.231 200.268 409.431 203.148 406.601 C 203.028 405.381 203.628 404.361 204.558 403.801 L 204.558 399.931 C 204.558 397.951 207.558 397.951 207.558 399.931 L 207.558 403.801 C 210.698 405.681 208.248 410.381 204.958 409.031 L 202.668 411.281 C 201.478 412.441 199.568 411.091 200.268 409.581 L 200.258 409.591 Z M 204.558 395.261 C 204.558 392.811 204.478 392.621 204.838 392.111 C 205.318 391.431 206.228 391.281 206.898 391.731 C 207.728 392.281 207.568 392.941 207.568 395.261 C 207.568 397.241 204.568 397.241 204.568 395.261 L 204.558 395.261 Z M 207.558 417.381 L 207.558 419.661 C 207.558 421.651 204.558 421.641 204.558 419.661 L 204.558 417.381 C 204.558 415.401 207.558 415.401 207.558 417.381 Z M 217.128 404.821 L 219.408 404.821 C 221.388 404.821 221.388 407.821 219.408 407.821 L 217.128 407.821 C 215.148 407.821 215.148 404.821 217.128 404.821 Z M 192.918 404.821 L 195.198 404.821 C 197.178 404.821 197.178 407.821 195.198 407.821 L 192.918 407.821 C 190.938 407.821 190.938 404.821 192.918 404.821 Z" transform="matrix(0.9999999999999999, 0, 0, 0.9999999999999999, -7.105427357601002e-15, -7.105427357601002e-15)"/>
</svg>