<?xml version="1.0" encoding="utf-8"?>
<svg viewBox="341.9008 74.5806 91 93" xmlns="http://www.w3.org/2000/svg">
  <g data-name="Layer 4" transform="matrix(0.9999999999999999, 0, 0, 0.9999999999999999, 337.40081787109375, 71.08062744140624)">
    <path d="M6,93.5a1.5,1.5,0,0,0,0,3H94a1.5,1.5,0,0,0,0-3H89.5V52.349a5.191,5.191,0,0,0,4-5.04V36.5H94A1.5,1.5,0,0,0,95.5,35V27A1.5,1.5,0,0,0,94,25.5H73.5v-3H87.333c2.337,0,4.167-1.538,4.167-3.5V7c0-1.962-1.83-3.5-4.167-3.5H12.667C10.33,3.5,8.5,5.038,8.5,7V19c0,1.962,1.83,3.5,4.167,3.5H26.5v3H6A1.5,1.5,0,0,0,4.5,27v8A1.5,1.5,0,0,0,6,36.5h.5V47.309a5.191,5.191,0,0,0,4,5.04V93.5Zm52.5,0h-17v-25h17Zm0-28h-17v-5h17Zm28,28h-25V59A1.5,1.5,0,0,0,60,57.5H40A1.5,1.5,0,0,0,38.5,59V93.5h-25v-41h2.809A5.173,5.173,0,0,0,20,50.951,5.173,5.173,0,0,0,23.691,52.5h4.618A5.173,5.173,0,0,0,32,50.951,5.173,5.173,0,0,0,35.691,52.5h4.618A5.173,5.173,0,0,0,44,50.951,5.173,5.173,0,0,0,47.691,52.5h4.618A5.173,5.173,0,0,0,56,50.951,5.173,5.173,0,0,0,59.691,52.5h4.618A5.173,5.173,0,0,0,68,50.951,5.173,5.173,0,0,0,71.691,52.5h4.618A5.173,5.173,0,0,0,80,50.951,5.173,5.173,0,0,0,83.691,52.5H86.5Zm-65-46.191V36.5h9V47.309A2.194,2.194,0,0,1,28.309,49.5H23.691A2.194,2.194,0,0,1,21.5,47.309Zm12,0V36.5h9V47.309A2.194,2.194,0,0,1,40.309,49.5H35.691A2.194,2.194,0,0,1,33.5,47.309Zm12,0V36.5h9V47.309A2.194,2.194,0,0,1,52.309,49.5H47.691A2.194,2.194,0,0,1,45.5,47.309Zm12,0V36.5h9V47.309A2.194,2.194,0,0,1,64.309,49.5H59.691A2.194,2.194,0,0,1,57.5,47.309Zm12,0V36.5h9V47.309A2.194,2.194,0,0,1,76.309,49.5H71.691A2.194,2.194,0,0,1,69.5,47.309Zm21,0A2.194,2.194,0,0,1,88.309,49.5H83.691A2.194,2.194,0,0,1,81.5,47.309V36.5h9ZM12.667,19.5c-.778,0-1.167-.4-1.167-.5V7c0-.1.389-.5,1.167-.5H87.333c.778,0,1.167.4,1.167.5V19c0,.1-.389.5-1.167.5Zm57.833,3v3h-41v-3Zm-63,11v-5h85v5Zm2,13.809V36.5h9V47.309A2.194,2.194,0,0,1,16.309,49.5H11.691A2.194,2.194,0,0,1,9.5,47.309ZM32,67.5H20A3.5,3.5,0,0,0,16.5,71V83A3.5,3.5,0,0,0,20,86.5H32A3.5,3.5,0,0,0,35.5,83V71A3.5,3.5,0,0,0,32,67.5ZM32.5,83a.5.5,0,0,1-.5.5H20a.5.5,0,0,1-.5-.5V71a.5.5,0,0,1,.5-.5H32a.5.5,0,0,1,.5.5ZM80,67.5H68A3.5,3.5,0,0,0,64.5,71V83A3.5,3.5,0,0,0,68,86.5H80A3.5,3.5,0,0,0,83.5,83V71A3.5,3.5,0,0,0,80,67.5ZM80.5,83a.5.5,0,0,1-.5.5H68a.5.5,0,0,1-.5-.5V71a.5.5,0,0,1,.5-.5H80a.5.5,0,0,1,.5.5Zm1-71A1.5,1.5,0,0,1,80,13.5H20a1.5,1.5,0,0,1,0-3H80A1.5,1.5,0,0,1,81.5,12Z"/>
  </g>
</svg>